<svg width="287" height="240" viewBox="0 0 287 240" fill="none" xmlns="http://www.w3.org/2000/svg">
<g clip-path="url(#clip0_1_117)" filter="url(#filter0_d_1_117)">
<path d="M203.319 52.5231H201.336C200.945 52.5231 200.628 52.8407 200.628 53.2325V79.8797C200.628 80.2714 200.945 80.589 201.336 80.589H203.319C203.71 80.589 204.027 80.2714 204.027 79.8797V53.2325C204.027 52.8407 203.71 52.5231 203.319 52.5231Z" fill="#3F3D56"/>
<path d="M190.409 0H100.827C94.171 0 88.7749 5.40739 88.7749 12.0777V219.458C88.7749 226.128 94.171 231.535 100.827 231.535H190.409C197.066 231.535 202.462 226.128 202.462 219.458V12.0777C202.462 5.40739 197.066 0 190.409 0Z" fill="#3F3D56"/>
<path d="M186.638 6.03082H173.597V7.60288C173.597 8.58142 173.405 9.55038 173.031 10.4544C172.657 11.3584 172.109 12.1797 171.419 12.8715C170.728 13.5632 169.908 14.1118 169.006 14.4859C168.104 14.86 167.136 15.0523 166.16 15.0518H124.686C123.709 15.0523 122.742 14.86 121.84 14.4859C120.938 14.1118 120.118 13.5632 119.427 12.8715C118.736 12.1797 118.189 11.3584 117.815 10.4544C117.441 9.55038 117.248 8.58142 117.248 7.60288V6.03082H105.038C102.644 6.03082 100.347 6.98408 98.6538 8.6809C96.9605 10.3777 96.0093 12.6791 96.0093 15.0787V216.472C96.0093 218.872 96.9605 221.173 98.6538 222.87C100.347 224.567 102.644 225.52 105.038 225.52H186.638C189.033 225.52 191.33 224.567 193.023 222.87C194.716 221.173 195.668 218.872 195.668 216.472V15.0942C195.67 13.9047 195.437 12.7265 194.985 11.627C194.532 10.5275 193.867 9.52819 193.028 8.68637C192.19 7.84455 191.194 7.1767 190.097 6.72103C189.001 6.26537 187.825 6.03082 186.638 6.03082Z" fill="#FCFCFC"/>
<path d="M149.331 6.91458H135.849C135.188 6.91458 134.652 7.4513 134.652 8.11337V8.94447C134.652 9.60654 135.188 10.1433 135.849 10.1433H149.331C149.992 10.1433 150.528 9.60654 150.528 8.94447V8.11337C150.528 7.4513 149.992 6.91458 149.331 6.91458Z" fill="#E6E8EC"/>
<path d="M154.759 10.3626C155.769 10.3626 156.589 9.54169 156.589 8.52907C156.589 7.51646 155.769 6.69557 154.759 6.69557C153.748 6.69557 152.929 7.51646 152.929 8.52907C152.929 9.54169 153.748 10.3626 154.759 10.3626Z" fill="#E6E8EC"/>
<path d="M146.312 140.162C158.19 140.162 167.819 130.513 167.819 118.61C167.819 106.708 158.19 97.059 146.312 97.059C134.435 97.059 124.806 106.708 124.806 118.61C124.806 130.513 134.435 140.162 146.312 140.162Z" fill="#FCFCFC"/>
<path d="M174.599 115.601C174.599 121.298 172.913 126.867 169.755 131.603C166.596 136.34 162.107 140.032 156.854 142.212C151.602 144.392 145.822 144.962 140.247 143.85C134.671 142.739 129.549 139.995 125.53 135.967C121.51 131.938 118.772 126.806 117.663 121.218C116.555 115.631 117.124 109.839 119.3 104.576C121.475 99.313 125.16 94.8146 129.887 91.6497C134.614 88.4848 140.171 86.7957 145.856 86.7958C149.631 86.796 153.369 87.5411 156.856 88.9888C160.343 90.4364 163.512 92.5582 166.181 95.233C168.85 97.9078 170.967 101.083 172.412 104.578C173.856 108.073 174.599 111.818 174.599 115.601ZM142.534 130.848L163.856 109.481C164.028 109.308 164.165 109.104 164.258 108.878C164.352 108.652 164.4 108.411 164.4 108.166C164.4 107.922 164.352 107.68 164.258 107.455C164.165 107.229 164.028 107.024 163.856 106.852L161.232 104.242C161.06 104.069 160.856 103.932 160.631 103.839C160.407 103.745 160.166 103.697 159.922 103.697C159.679 103.697 159.438 103.745 159.213 103.839C158.988 103.932 158.784 104.069 158.612 104.242L141.222 121.669L133.102 113.513C132.753 113.166 132.282 112.971 131.79 112.971C131.299 112.971 130.827 113.166 130.479 113.513L127.855 116.158C127.508 116.507 127.314 116.979 127.314 117.472C127.314 117.965 127.508 118.437 127.855 118.786L139.911 130.863C140.083 131.036 140.287 131.173 140.512 131.267C140.737 131.36 140.979 131.409 141.222 131.409C141.466 131.409 141.707 131.36 141.933 131.267C142.158 131.173 142.362 131.036 142.534 130.863L142.534 130.848Z" fill="#9775FA"/>
<path d="M259.011 230.96C266.692 230.96 272.92 229.905 272.92 228.603C272.92 227.301 266.692 226.246 259.011 226.246C251.329 226.246 245.102 227.301 245.102 228.603C245.102 229.905 251.329 230.96 259.011 230.96Z" fill="#9775FA"/>
<path d="M264.763 224.749C265.397 224.229 265.859 223.53 266.088 222.742C266.261 221.948 265.922 221.007 265.161 220.7C264.31 220.374 263.399 220.967 262.712 221.563C262.025 222.159 261.231 222.842 260.328 222.714C260.793 222.293 261.141 221.758 261.339 221.162C261.536 220.567 261.576 219.93 261.454 219.314C261.413 219.058 261.305 218.819 261.139 218.62C260.669 218.114 259.81 218.329 259.247 218.731C257.448 219.996 256.947 222.448 256.936 224.648C256.753 223.854 256.909 223.025 256.902 222.221C256.895 221.417 256.677 220.487 255.989 220.062C255.564 219.834 255.087 219.721 254.605 219.736C253.796 219.705 252.896 219.788 252.343 220.381C251.651 221.115 251.838 222.35 252.433 223.154C253.028 223.958 253.938 224.474 254.775 225.032C255.444 225.433 256.014 225.979 256.444 226.631C256.496 226.722 256.537 226.818 256.568 226.918H261.621C262.761 226.34 263.818 225.611 264.762 224.75L264.763 224.749Z" fill="#9775FA"/>
<path d="M69.9075 232C74.9769 232 79.0864 231.304 79.0864 230.445C79.0864 229.586 74.9769 228.889 69.9075 228.889C64.8381 228.889 60.7285 229.586 60.7285 230.445C60.7285 231.304 64.8381 232 69.9075 232Z" fill="#EFEFEF"/>
<path d="M73.7038 227.901C74.1221 227.558 74.4269 227.096 74.578 226.576C74.6445 226.315 74.6201 226.04 74.5089 225.795C74.3976 225.55 74.2062 225.35 73.9662 225.229C73.4045 225.014 72.8042 225.405 72.3501 225.799C71.896 226.192 71.373 226.643 70.7774 226.558C71.084 226.28 71.3135 225.927 71.4435 225.534C71.5735 225.141 71.5996 224.721 71.5192 224.314C71.4925 224.146 71.4207 223.988 71.3115 223.857C71.0024 223.523 70.4348 223.665 70.063 223.93C68.876 224.766 68.5449 226.382 68.5381 227.835C68.4172 227.311 68.5198 226.764 68.5152 226.233C68.5106 225.703 68.3668 225.09 67.9124 224.809C67.6322 224.658 67.3172 224.584 66.9993 224.594C66.4651 224.573 65.8716 224.628 65.5063 225.019C65.0497 225.504 65.173 226.319 65.5656 226.849C65.9582 227.38 66.5585 227.721 67.1112 228.088C67.553 228.352 67.9299 228.712 68.2138 229.141C68.248 229.202 68.2756 229.265 68.296 229.331H71.6311C72.3831 228.95 73.0803 228.468 73.7038 227.899V227.901Z" fill="#EFEFEF"/>
<path d="M17.9968 232C23.0662 232 27.1758 231.304 27.1758 230.445C27.1758 229.586 23.0662 228.889 17.9968 228.889C12.9274 228.889 8.81787 229.586 8.81787 230.445C8.81787 231.304 12.9274 232 17.9968 232Z" fill="#EFEFEF"/>
<path d="M21.7931 227.901C22.2114 227.558 22.5162 227.096 22.6673 226.576C22.7339 226.315 22.7095 226.04 22.5982 225.795C22.487 225.55 22.2955 225.35 22.0556 225.229C21.4939 225.014 20.8936 225.405 20.4395 225.799C19.9854 226.192 19.4624 226.643 18.8667 226.558C19.1733 226.28 19.4028 225.927 19.5328 225.534C19.6628 225.141 19.689 224.721 19.6086 224.314C19.5818 224.146 19.5101 223.988 19.4009 223.857C19.0917 223.523 18.5242 223.665 18.1523 223.93C16.9653 224.766 16.6342 226.382 16.6274 227.835C16.5066 227.311 16.6092 226.764 16.6046 226.233C16.5999 225.703 16.4562 225.09 16.0018 224.809C15.7215 224.658 15.4066 224.584 15.0886 224.594C14.5545 224.573 13.961 224.628 13.5956 225.019C13.1391 225.504 13.2624 226.319 13.655 226.849C14.0475 227.38 14.6478 227.721 15.2005 228.088C15.6423 228.352 16.0192 228.712 16.3032 229.141C16.3374 229.202 16.365 229.265 16.3854 229.331H19.7205C20.4725 228.95 21.1697 228.468 21.7931 227.899V227.901Z" fill="#EFEFEF"/>
<path d="M283 231.112H4V231.676H283V231.112Z" fill="#2F2E41"/>
<path d="M269.381 15.6506C269.381 15.6506 240.256 13.8895 243.687 34.3408C243.687 34.3408 242.995 37.9561 246.275 39.5957C246.275 39.5957 246.327 38.0809 249.263 38.5973C250.309 38.771 251.371 38.8221 252.428 38.7497C253.855 38.6557 255.212 38.0997 256.295 37.1656C256.295 37.1656 264.483 33.7755 267.665 20.368C267.665 20.368 270.021 17.4425 269.927 16.6901L265.012 18.7941C265.012 18.7941 266.693 22.3471 265.358 25.2991C265.358 25.2991 265.199 18.9211 264.255 19.0598C264.065 19.0877 261.702 20.2902 261.702 20.2902C261.702 20.2902 264.591 26.4775 262.411 30.9771C262.411 30.9771 263.238 23.3513 260.799 20.7375L257.34 22.7618C257.34 22.7618 260.716 29.1538 258.426 34.3706C258.426 34.3706 259.014 26.3703 256.61 23.254L253.476 25.7046C253.476 25.7046 256.648 32.0027 254.715 36.3295C254.715 36.3295 254.462 27.0189 252.798 26.3155C252.798 26.3155 250.055 28.7418 249.637 29.7331C249.637 29.7331 251.809 34.3086 250.46 36.7211C250.46 36.7211 249.633 30.5165 248.955 30.4818C248.955 30.4818 246.222 34.5927 245.939 37.4143C245.939 37.4143 246.056 33.2235 248.294 30.0937C248.294 30.0937 245.651 30.5478 244.109 32.262C244.109 32.262 244.534 29.3573 248.969 29.1009C248.969 29.1009 251.227 25.9812 251.829 25.7941C251.829 25.7941 247.422 25.4224 244.748 26.6122C244.748 26.6122 247.101 23.8705 252.639 25.1182L255.735 22.5843C255.735 22.5843 249.93 21.7904 247.468 22.6677C247.468 22.6677 250.301 20.2413 256.568 22.0091L259.938 19.9916C259.938 19.9916 254.988 18.9238 252.041 19.2983C252.041 19.2983 255.154 17.6173 260.927 19.4405L263.348 18.3564C263.348 18.3564 259.723 17.6423 258.661 17.528C257.599 17.4137 257.544 17.1226 257.544 17.1226C259.84 16.7388 262.198 17.0017 264.355 17.8818C264.355 17.8818 269.468 15.973 269.381 15.6506Z" fill="#9775FA"/>
<path d="M229.475 4.82334C229.475 4.82334 216.331 4.02942 217.866 13.2706C217.866 13.2706 217.557 14.9034 219.036 15.645C219.036 15.645 219.06 14.9517 220.388 15.1909C220.86 15.2704 221.339 15.2937 221.816 15.2603C222.462 15.2175 223.075 14.9642 223.563 14.5391C223.563 14.5391 227.264 13.007 228.703 6.94802C228.703 6.94802 229.765 5.6275 229.723 5.28768L227.503 6.23742C227.503 6.23742 228.26 7.84231 227.665 9.17678C227.665 9.17678 227.593 6.29597 227.167 6.36226C227.081 6.36226 226.012 6.91983 226.012 6.91983C226.012 6.91983 227.319 9.71701 226.334 11.7485C226.334 11.7485 226.707 8.30294 225.604 7.12087L224.04 8.05017C224.04 8.05017 225.566 10.9375 224.531 13.2948C224.531 13.2948 224.798 9.67953 223.712 8.27227L222.297 9.38153C222.297 9.38153 223.729 12.2273 222.857 14.1829C222.857 14.1829 222.74 9.97473 221.989 9.65599C221.989 9.65599 220.751 10.7513 220.56 11.202C220.56 11.202 221.543 13.2818 220.934 14.3598C220.934 14.3598 220.56 11.5555 220.242 11.5409C220.242 11.5409 219.007 13.3995 218.879 14.6606C218.941 13.4841 219.308 12.3443 219.945 11.3538C219.232 11.4891 218.574 11.8301 218.053 12.3348C218.053 12.3348 218.246 11.0211 220.249 10.9068C220.249 10.9068 221.287 9.49615 221.543 9.40942C221.543 9.40942 219.551 9.24307 218.343 9.78113C218.343 9.78113 219.405 8.54362 221.906 9.10522L223.29 7.96126C223.29 7.96126 220.665 7.61123 219.552 7.9972C219.552 7.9972 220.832 6.90187 223.665 7.6992L225.187 6.78756C225.187 6.78756 222.949 6.30588 221.618 6.4778C221.618 6.4778 223.025 5.71856 225.634 6.53975L226.723 6.05094C226.723 6.05094 225.085 5.72848 224.603 5.67644C224.121 5.6244 224.098 5.49274 224.098 5.49274C225.136 5.31964 226.202 5.43967 227.176 5.83937C227.176 5.83937 229.516 4.96769 229.475 4.82334Z" fill="#3F3D56"/>
<path d="M48.6948 145.902C48.6948 145.902 35.5505 145.108 37.0862 154.349C37.0862 154.349 36.7771 155.982 38.2553 156.723C38.2553 156.723 38.2794 156.03 39.6077 156.269C40.0794 156.349 40.5589 156.372 41.0361 156.339C41.6814 156.296 42.2949 156.043 42.783 155.618C42.783 155.618 46.484 154.085 47.923 148.026C47.923 148.026 48.9848 146.706 48.9431 146.366L46.7224 147.316C46.7224 147.316 47.48 148.921 46.885 150.255C46.885 150.255 46.8123 147.374 46.387 147.441C46.3004 147.441 45.2315 147.998 45.2315 147.998C45.2315 147.998 46.5391 150.795 45.5533 152.827C45.5533 152.827 45.9267 149.381 44.8234 148.199L43.2599 149.129C43.2599 149.129 44.7854 152.016 43.7511 154.373C43.7511 154.373 44.0176 150.758 42.9313 149.351L41.5165 150.46C41.5165 150.46 42.9486 153.306 42.0769 155.261C42.0769 155.261 41.9595 151.053 41.2086 150.734C41.2086 150.734 39.9703 151.83 39.7799 152.28C39.7799 152.28 40.7623 154.36 40.1536 155.438C40.1536 155.438 39.7799 152.634 39.4618 152.619C39.4618 152.619 38.2269 154.478 38.0989 155.739C38.1607 154.563 38.528 153.423 39.1644 152.432C38.4518 152.567 37.7942 152.908 37.2723 153.413C37.2723 153.413 37.4661 152.1 39.4689 151.985C39.4689 151.985 40.5066 150.575 40.7626 150.488C40.7626 150.488 38.7703 150.321 37.5629 150.86C37.5629 150.86 38.6247 149.622 41.1258 150.184L42.5094 149.04C42.5094 149.04 39.885 148.69 38.7722 149.076C38.7722 149.076 40.0519 147.98 42.885 148.778L44.4071 147.866C44.4071 147.866 42.1691 147.384 40.8374 147.556C40.8374 147.556 42.2451 146.797 44.8534 147.618L45.9431 147.129C45.9431 147.129 44.3048 146.807 43.8225 146.755C43.3403 146.703 43.3174 146.571 43.3174 146.571C44.3558 146.398 45.4218 146.518 46.3959 146.918C46.3959 146.918 48.7353 146.046 48.6948 145.902Z" fill="#3F3D56"/>
</g>
<defs>
<filter id="filter0_d_1_117" x="0" y="0" width="287" height="240" filterUnits="userSpaceOnUse" color-interpolation-filters="sRGB">
<feFlood flood-opacity="0" result="BackgroundImageFix"/>
<feColorMatrix in="SourceAlpha" type="matrix" values="0 0 0 0 0 0 0 0 0 0 0 0 0 0 0 0 0 0 127 0" result="hardAlpha"/>
<feOffset dy="4"/>
<feGaussianBlur stdDeviation="2"/>
<feComposite in2="hardAlpha" operator="out"/>
<feColorMatrix type="matrix" values="0 0 0 0 0 0 0 0 0 0 0 0 0 0 0 0 0 0 0.25 0"/>
<feBlend mode="normal" in2="BackgroundImageFix" result="effect1_dropShadow_1_117"/>
<feBlend mode="normal" in="SourceGraphic" in2="effect1_dropShadow_1_117" result="shape"/>
</filter>
<clipPath id="clip0_1_117">
<rect width="279" height="232" fill="white" transform="translate(4)"/>
</clipPath>
</defs>
</svg>
